# xmcd
#
# Track frame offsets:
#	150
#	20437
#	43236
#	63133
#	89813
#	109894
#	129779
#	149219
#	169259
#	190588
#	216241
#
# Disc length: 3116 seconds
#
# Revision: 1
# Processed by: cddbd v1.5.2PL0 Copyright (c) Steve Scherf et al.
# Submitted via: audiograbber 1.82.02
#
DISCID=a40c2a0b
DTITLE=Anthony Hamilton - Southern Comfort
DYEAR=2007
DGENRE=R&B
TTITLE0=They Don't Know
TTITLE1=Magnolias Room
TTITLE2=Why
TTITLE3=Don't Say What You Won't Do
TTITLE4=Glad U Called
TTITLE5=Fallin' In Love Again
TTITLE6=Trouble
TTITLE7=Never Give Up
TTITLE8=Better Love
TTITLE9=Please
TTITLE10=Sailin Away
EXTD=
EXTT0=
EXTT1=
EXTT2=
EXTT3=
EXTT4=
EXTT5=
EXTT6=
EXTT7=
EXTT8=
EXTT9=
EXTT10=
PLAYORDER=
